<svg xmlns="http://www.w3.org/2000/svg" viewBox="0 0 800 520" width="800" height="520" font-family="Segoe UI, system-ui, -apple-system, sans-serif">

  <defs>
    <marker id="arrow" viewBox="0 0 10 10" refX="8" refY="5" markerWidth="6" markerHeight="6" orient="auto-start-reverse">
      <path d="M2 1L8 5L2 9" fill="none" stroke="#64748b" stroke-width="1.5" stroke-linecap="round" stroke-linejoin="round"/>
    </marker>
  </defs>

  <rect width="800" height="520" rx="12" fill="#0f172a"/>

  <text x="400" y="32" text-anchor="middle" fill="#94a3b8" font-size="12" font-weight="500" letter-spacing="1.5">ARCHITECTURE</text>

  <rect x="250" y="48" width="300" height="52" rx="10" fill="#1e293b" stroke="#3b82f6" stroke-width="1.5"/>
  <text x="400" y="70" text-anchor="middle" fill="#60a5fa" font-size="14" font-weight="600">Streamlit frontend</text>
  <text x="400" y="88" text-anchor="middle" fill="#64748b" font-size="11">Upload  ·  Chat  ·  Extraction view</text>

  <line x1="400" y1="100" x2="400" y2="128" stroke="#475569" stroke-width="1" marker-end="url(#arrow)"/>
  <text x="415" y="118" fill="#64748b" font-size="10">REST API</text>

  <rect x="60" y="128" width="680" height="300" rx="12" fill="#1e293b" stroke="#334155" stroke-width="1"/>
  <text x="400" y="152" text-anchor="middle" fill="#e2e8f0" font-size="14" font-weight="600">FastAPI backend</text>

  <rect x="90" y="170" width="190" height="160" rx="8" fill="#172554" stroke="#1d4ed8" stroke-width="1"/>
  <text x="185" y="194" text-anchor="middle" fill="#60a5fa" font-size="13" font-weight="600">OCR module</text>

  <rect x="110" y="210" width="150" height="32" rx="6" fill="#1e3a5f" stroke="#2563eb" stroke-width="0.5"/>
  <text x="185" y="230" text-anchor="middle" fill="#93c5fd" font-size="11">PDF native extraction</text>

  <rect x="110" y="252" width="150" height="32" rx="6" fill="#1e3a5f" stroke="#2563eb" stroke-width="0.5"/>
  <text x="185" y="272" text-anchor="middle" fill="#93c5fd" font-size="11">Tesseract OCR</text>

  <rect x="110" y="294" width="150" height="32" rx="6" fill="#1e3a5f" stroke="#2563eb" stroke-width="0.5"/>
  <text x="185" y="314" text-anchor="middle" fill="#93c5fd" font-size="11">Image preprocessing</text>

  <rect x="305" y="170" width="190" height="228" rx="8" fill="#14532d" stroke="#16a34a" stroke-width="1"/>
  <text x="400" y="194" text-anchor="middle" fill="#4ade80" font-size="13" font-weight="600">RAG pipeline</text>

  <rect x="325" y="210" width="150" height="32" rx="6" fill="#1a3a2a" stroke="#22c55e" stroke-width="0.5"/>
  <text x="400" y="230" text-anchor="middle" fill="#86efac" font-size="11">Text chunking</text>

  <rect x="325" y="252" width="150" height="32" rx="6" fill="#1a3a2a" stroke="#22c55e" stroke-width="0.5"/>
  <text x="400" y="272" text-anchor="middle" fill="#86efac" font-size="11">HF embeddings</text>

  <rect x="325" y="294" width="150" height="32" rx="6" fill="#1a3a2a" stroke="#22c55e" stroke-width="0.5"/>
  <text x="400" y="314" text-anchor="middle" fill="#86efac" font-size="11">FAISS vector store</text>

  <rect x="325" y="336" width="150" height="32" rx="6" fill="#1a3a2a" stroke="#22c55e" stroke-width="0.5"/>
  <text x="400" y="356" text-anchor="middle" fill="#86efac" font-size="11">LLM query chain</text>

  <line x1="280" y1="270" x2="323" y2="270" stroke="#475569" stroke-width="1" marker-end="url(#arrow)"/>

  <rect x="520" y="170" width="190" height="160" rx="8" fill="#451a03" stroke="#d97706" stroke-width="1"/>
  <text x="615" y="194" text-anchor="middle" fill="#fbbf24" font-size="13" font-weight="600">Structured extraction</text>

  <rect x="540" y="210" width="150" height="32" rx="6" fill="#3d1f04" stroke="#f59e0b" stroke-width="0.5"/>
  <text x="615" y="230" text-anchor="middle" fill="#fcd34d" font-size="11">Dates · Amounts</text>

  <rect x="540" y="252" width="150" height="32" rx="6" fill="#3d1f04" stroke="#f59e0b" stroke-width="0.5"/>
  <text x="615" y="272" text-anchor="middle" fill="#fcd34d" font-size="11">Emails · IBANs</text>

  <rect x="540" y="294" width="150" height="32" rx="6" fill="#3d1f04" stroke="#f59e0b" stroke-width="0.5"/>
  <text x="615" y="314" text-anchor="middle" fill="#fcd34d" font-size="11">References · KV pairs</text>

  <line x1="400" y1="398" x2="400" y2="440" stroke="#475569" stroke-width="1" marker-end="url(#arrow)"/>

  <rect x="280" y="450" width="240" height="52" rx="10" fill="#1e293b" stroke="#a855f7" stroke-width="1.5"/>
  <text x="400" y="472" text-anchor="middle" fill="#c084fc" font-size="14" font-weight="600">Groq API (free)</text>
  <text x="400" y="490" text-anchor="middle" fill="#64748b" font-size="11">Llama 3.1 8B instant</text>

</svg>
